<?xml version="1.0" encoding="utf-8"?>
<!-- Generator: Adobe Illustrator 15.0.0, SVG Export Plug-In . SVG Version: 6.00 Build 0)  -->
<!DOCTYPE svg PUBLIC "-//W3C//DTD SVG 1.1//EN" "http://www.w3.org/Graphics/SVG/1.1/DTD/svg11.dtd">
<svg version="1.1" id="Ebene_1" xmlns="http://www.w3.org/2000/svg" xmlns:xlink="http://www.w3.org/1999/xlink" x="0px" y="0px"
	 width="468.854px" height="174.152px" viewBox="-24.5 526.5 468.854 174.152" enable-background="new -24.5 526.5 468.854 174.152"
	 xml:space="preserve">
<g id="black">
	<g id="logo_v1_5_">
		<g id="PRIA_5_">
			<path id="path54_5_" d="M191.773,666.246v-31.197l-10.355-10.611c1.348-0.916,1.932-1.482,3.104-2.662
				c5.289-5.297,7.934-11.93,7.934-19.893c0-9.32-2.671-16.312-8.005-20.977c-5.338-4.662-12.522-6.992-21.574-6.992h-23.609
				l-14.436,14.461l-9.984,10.008v54.072v2.879v7.629h3.433h20.987v-31.072v-35.05h13.113h3.983c4.069,0,6.938,0.826,8.618,2.468
				c1.667,1.646,2.507,3.924,2.507,6.842c0,2.925-0.944,5.343-2.847,7.261c-1.903,1.914-4.662,2.873-8.278,2.873h-3.983h-4.148
				h-6.312l3.688,3.69l6.773,6.787L191.773,666.246z M223.596,663.098v-89.182l-24.432,24.512v64.67H223.596L223.596,663.098z
				 M106.355,595.902c-0.212-0.762-0.448-1.51-0.702-2.227l7.067-4.089l23.274-23.118h26.829c10.721,0,19.086,2.309,25.416,7.832
				c7.345,5.896,9.409,14.575,9.409,14.575l32.107-30.39v74.729l64.343-64.533h26.271v100.107l-31.194,0.037l-0.027-13.076h-39.372
				l25.753-25.543l16.589-0.006v-23.604l-61.914,62.229H195.33v10.59l-49.045-47.084v36.631h-25.312l3.938,8.766l-31.556,19.838
				l-16.646-22.709c-2.64,0.471-5.336,0.781-8.082,0.912v-27.672l-8.114-0.029v27.592c-2.485-0.188-4.942-0.518-7.345-0.982
				l-19.29,21.688L6.147,681.68l10.812-28.084c-4.736-5.518-8.559-11.842-11.21-18.748l-30.067-5.797l-0.181-34.179l29.774-4.545
				c0.715-1.985,1.526-3.937,2.432-5.822l20.516,11.845l-2.072,2.076v64.672h13.476h10.953v-26.658v-39.601h17.533
				c4.068,0,6.921,1.056,8.546,3.154c1.812,2.094,2.719,4.875,2.719,8.336c0,2.92-0.945,5.338-2.85,7.252
				c-1.9,1.913-4.658,2.87-8.273,2.87l-8.645,0.053v21.486v0.223l0.905,0.004l9.166,0.055l5.619,0.031
				c8.777,0,16.398-3.166,22.865-9.506c6.471-6.336,9.7-13.938,9.7-22.811C107.865,603.521,107.356,599.498,106.355,595.902"/>
			<path id="path86_5_" d="M320.371,680.951v19.701H97.832l31.328-19.701H320.371z"/>
			<path id="path90_5_" d="M123.756,543.916l-9.039,27.381c1.438,1.734,2.78,3.549,4.027,5.441l-16.871,9.74
				c-1.072-1.463-2.281-2.807-3.645-4.018c-6.427-5.697-14.294-8.549-23.607-8.549H50.573l-16.431,16.484l-22.489-12.98
				c1.322-2.068,2.774-4.049,4.325-5.943L5.449,542.715L33.354,526.5l20.353,22.625c3.803-0.707,7.721-1.076,11.72-1.076
				c3.229,0,6.4,0.242,9.502,0.705l19.235-21.955L123.756,543.916z"/>
		</g>
		<g id="Practical_Robotics_Institute_Austria_5_">
			<path d="M336.357,596.953v-28.414h7.104c4.735,0,7.104,2.707,7.104,8.119c0,2.312-0.61,4.078-1.831,5.287
				c-1.225,1.211-2.979,1.812-5.271,1.812h-3.044v13.193L336.357,596.953L336.357,596.953z M340.412,580.716h1.016
				c0.921,0,1.676-0.053,2.263-0.157c0.586-0.104,1.104-0.306,1.554-0.595c0.45-0.291,0.771-0.707,0.969-1.245
				c0.193-0.539,0.292-1.226,0.292-2.062c0-1.017-0.07-1.837-0.223-2.466c-0.146-0.631-0.42-1.146-0.815-1.547
				c-0.396-0.399-0.906-0.681-1.538-0.832c-0.629-0.151-1.462-0.229-2.494-0.229h-1.019L340.412,580.716L340.412,580.716z"/>
			<path d="M352.687,596.953v-20.295h4.06v2.711c0.412-0.803,1.013-1.504,1.802-2.104c0.785-0.596,1.66-0.895,2.623-0.895
				c0.03,0,0.248,0.02,0.649,0.062v4.485c-0.752-0.295-1.502-0.442-2.251-0.442c-0.85,0-1.527,0.252-2.046,0.762
				c-0.521,0.507-0.777,1.179-0.777,2.015v13.699L352.687,596.953L352.687,596.953z"/>
			<path d="M367.207,597.238c-1.131,0-2.09-0.487-2.877-1.467c-0.788-0.979-1.181-2.08-1.181-3.308c0-0.981,0.166-1.875,0.498-2.68
				c0.333-0.804,0.685-1.445,1.055-1.927c0.37-0.48,0.988-0.979,1.854-1.489c0.866-0.515,1.521-0.865,1.969-1.056
				c0.441-0.188,1.215-0.502,2.312-0.937c0.191-0.073,0.334-0.131,0.431-0.174v-1.459c0-1.024-0.145-1.822-0.431-2.388
				c-0.283-0.565-0.815-0.851-1.601-0.851c-0.697,0-1.197,0.242-1.499,0.722c-0.302,0.481-0.476,1.146-0.519,1.989
				c-0.011,0.117-0.017,0.291-0.017,0.522h-4.058c0.02-1.944,0.562-3.493,1.633-4.645c1.065-1.15,2.553-1.728,4.455-1.728
				c1.892,0,3.38,0.584,4.464,1.752c1.082,1.168,1.625,2.709,1.625,4.62v9.134c0,2.114,0.174,3.808,0.521,5.073h-4.043l-0.54-3.043
				c-0.211,0.423-0.385,0.75-0.517,0.982c-0.132,0.231-0.323,0.52-0.578,0.862c-0.253,0.344-0.508,0.608-0.761,0.793
				c-0.254,0.187-0.571,0.349-0.951,0.483C368.079,597.169,367.662,597.238,367.207,597.238z M369.24,593.91
				c0.286,0,0.562-0.084,0.833-0.254c0.27-0.17,0.474-0.334,0.609-0.492c0.138-0.158,0.307-0.371,0.508-0.635
				c0.028-0.055,0.058-0.09,0.079-0.111v-5.611c-0.169,0.115-0.449,0.295-0.843,0.539c-0.393,0.242-0.701,0.441-0.937,0.594
				c-0.231,0.154-0.513,0.365-0.84,0.636c-0.328,0.271-0.583,0.526-0.765,0.774c-0.181,0.248-0.339,0.553-0.477,0.912
				c-0.139,0.359-0.207,0.734-0.207,1.125C367.207,593.068,367.884,593.91,369.24,593.91z"/>
			<path d="M383.892,597.238c-0.983,0-1.84-0.164-2.562-0.489c-0.725-0.328-1.303-0.756-1.735-1.285
				c-0.434-0.528-0.778-1.202-1.046-2.021c-0.266-0.818-0.446-1.641-0.549-2.459c-0.101-0.818-0.16-1.771-0.182-2.861
				c-0.032-0.877-0.032-1.76,0-2.648c0.021-1.078,0.081-2.027,0.182-2.854c0.104-0.824,0.287-1.646,0.558-2.465
				s0.617-1.49,1.048-2.016c0.429-0.521,1.004-0.947,1.729-1.273c0.728-0.328,1.578-0.492,2.562-0.492
				c2.135,0,3.667,0.576,4.599,1.729c0.93,1.152,1.427,2.859,1.489,5.121v0.539h-4.062v-0.57c-0.011-0.508-0.046-0.949-0.104-1.332
				c-0.061-0.381-0.153-0.762-0.284-1.143c-0.134-0.379-0.34-0.672-0.619-0.879c-0.28-0.207-0.622-0.311-1.021-0.311
				c-0.402,0-0.74,0.119-1.019,0.355c-0.271,0.238-0.479,0.578-0.627,1.021c-0.143,0.443-0.244,0.9-0.309,1.371
				c-0.064,0.472-0.104,1.015-0.111,1.625c-0.043,1.312-0.043,3.287,0,5.933c0.021,0.582,0.063,1.091,0.127,1.528
				c0.064,0.438,0.166,0.861,0.312,1.269c0.144,0.408,0.352,0.724,0.627,0.942c0.271,0.224,0.604,0.334,0.999,0.334
				c0.354,0,0.668-0.066,0.927-0.206c0.26-0.138,0.457-0.308,0.595-0.507c0.14-0.2,0.246-0.473,0.325-0.811
				c0.079-0.339,0.129-0.652,0.15-0.941c0.021-0.291,0.029-0.657,0.029-1.104v-0.491h4.062v0.522
				c-0.032,1.067-0.164,2.012-0.396,2.832c-0.229,0.817-0.585,1.534-1.055,2.146c-0.471,0.613-1.095,1.082-1.871,1.404
				C385.878,597.078,384.956,597.238,383.892,597.238z"/>
			<path d="M398.126,597.238c-1.596,0-2.756-0.405-3.479-1.221c-0.727-0.812-1.1-2.045-1.117-3.693v-12.62h-2.03v-3.046h2.03v-7.104
				h4.06v7.104h3.045v3.046h-3.045v11.844c0,0.813,0.109,1.41,0.333,1.791c0.225,0.382,0.671,0.572,1.351,0.572
				c0.297,0,0.751-0.056,1.361-0.158v3.298C399.618,597.176,398.781,597.238,398.126,597.238z"/>
			<path d="M403.775,573.615v-4.061h4.059v4.061H403.775z M403.775,596.953v-20.295h4.059v20.295H403.775z"/>
			<path d="M416.789,597.238c-0.979,0-1.837-0.164-2.562-0.489c-0.728-0.328-1.305-0.756-1.735-1.285
				c-0.435-0.528-0.782-1.202-1.047-2.021c-0.266-0.818-0.446-1.641-0.547-2.459c-0.104-0.818-0.161-1.771-0.186-2.861
				c-0.029-0.877-0.029-1.76,0-2.648c0.021-1.078,0.082-2.027,0.186-2.854c0.101-0.824,0.285-1.646,0.555-2.465
				c0.271-0.818,0.618-1.49,1.048-2.016c0.429-0.523,1.004-0.947,1.729-1.273c0.725-0.328,1.578-0.492,2.562-0.492
				c2.134,0,3.666,0.576,4.601,1.729c0.93,1.152,1.428,2.859,1.488,5.121v0.539h-4.062v-0.57c-0.01-0.508-0.045-0.949-0.104-1.332
				c-0.059-0.381-0.15-0.762-0.282-1.143c-0.136-0.379-0.34-0.672-0.618-0.879c-0.28-0.207-0.621-0.311-1.021-0.311
				c-0.399,0-0.736,0.119-1.016,0.355c-0.275,0.236-0.483,0.578-0.627,1.021c-0.146,0.443-0.245,0.9-0.312,1.371
				c-0.062,0.472-0.102,1.015-0.107,1.625c-0.043,1.312-0.043,3.287,0,5.933c0.021,0.582,0.062,1.091,0.126,1.528
				c0.062,0.438,0.167,0.861,0.311,1.269c0.146,0.408,0.354,0.724,0.627,0.942c0.274,0.224,0.606,0.334,0.999,0.334
				c0.358,0,0.669-0.066,0.931-0.206c0.259-0.138,0.456-0.308,0.594-0.507c0.137-0.2,0.246-0.473,0.325-0.811
				c0.078-0.339,0.129-0.652,0.147-0.941c0.021-0.291,0.03-0.657,0.03-1.104v-0.491h4.062v0.522
				c-0.029,1.067-0.163,2.012-0.396,2.832c-0.232,0.817-0.585,1.534-1.055,2.146c-0.474,0.613-1.097,1.082-1.87,1.404
				C418.781,597.078,417.859,597.238,416.789,597.238z"/>
			<path d="M428.937,597.238c-1.134,0-2.093-0.487-2.877-1.467c-0.788-0.979-1.186-2.08-1.186-3.308c0-0.981,0.166-1.875,0.499-2.68
				c0.332-0.804,0.688-1.445,1.06-1.927c0.366-0.479,0.983-0.979,1.854-1.489c0.868-0.515,1.521-0.865,1.967-1.056
				c0.446-0.188,1.217-0.502,2.314-0.937c0.188-0.073,0.333-0.131,0.43-0.174v-1.459c0-1.024-0.144-1.822-0.43-2.388
				c-0.285-0.565-0.819-0.851-1.604-0.851c-0.695,0-1.194,0.242-1.498,0.722c-0.304,0.481-0.475,1.146-0.518,1.989
				c-0.01,0.117-0.016,0.291-0.016,0.522h-4.062c0.021-1.944,0.565-3.493,1.635-4.645c1.065-1.15,2.555-1.728,4.455-1.728
				c1.895,0,3.379,0.584,4.463,1.752c1.083,1.168,1.625,2.709,1.625,4.62v9.134c0,2.114,0.178,3.808,0.522,5.073h-4.042
				l-0.539-3.043c-0.212,0.423-0.384,0.75-0.517,0.982c-0.136,0.231-0.325,0.52-0.579,0.862c-0.253,0.344-0.509,0.608-0.764,0.793
				c-0.255,0.187-0.567,0.349-0.948,0.483C429.807,597.169,429.393,597.238,428.937,597.238z M430.964,593.91
				c0.284,0,0.562-0.084,0.832-0.254c0.271-0.17,0.476-0.334,0.608-0.492c0.139-0.158,0.308-0.371,0.509-0.635
				c0.031-0.055,0.062-0.09,0.08-0.111v-5.611c-0.17,0.115-0.45,0.295-0.842,0.539c-0.395,0.242-0.702,0.441-0.938,0.594
				c-0.229,0.154-0.514,0.365-0.839,0.636c-0.328,0.271-0.584,0.526-0.763,0.774c-0.18,0.248-0.34,0.553-0.479,0.912
				c-0.139,0.359-0.205,0.734-0.205,1.125C428.937,593.068,429.613,593.91,430.964,593.91z"/>
			<path d="M440.56,596.953v-28.414h4.059v28.414H440.56z"/>
			<path d="M336.357,631.523v-28.416h5.07c3.022,0,5.304,0.588,6.837,1.763c1.529,1.172,2.299,3.123,2.299,5.851
				c0,1.69-0.304,3.108-0.904,4.25c-0.604,1.143-1.483,1.924-2.646,2.346l4.566,14.209h-4.028l-4.09-13.193h-3.045v13.193h-4.059
				V631.523L336.357,631.523z M340.412,615.287h1.016c1.69,0,2.959-0.357,3.809-1.07c0.846-0.715,1.269-1.879,1.269-3.498
				c0-1.617-0.423-2.783-1.269-3.496c-0.85-0.713-2.114-1.07-3.809-1.07h-1.016V615.287z"/>
			<path d="M364.132,629.906c-0.938,1.27-2.498,1.902-4.678,1.902c-2.178,0-3.735-0.639-4.677-1.902
				c-0.941-1.271-1.411-3.098-1.411-5.488v-6.086c0-2.391,0.47-4.217,1.411-5.484c0.938-1.271,2.499-1.902,4.677-1.902
				c2.18,0,3.737,0.636,4.678,1.902c0.94,1.271,1.412,3.096,1.412,5.484v6.086C365.544,626.809,365.074,628.637,364.132,629.906z
				 M358.702,628.352c0.218,0.084,0.469,0.127,0.753,0.127c0.285,0,0.536-0.043,0.753-0.127c0.218-0.084,0.396-0.189,0.539-0.312
				c0.145-0.121,0.262-0.303,0.357-0.539c0.095-0.236,0.168-0.445,0.221-0.627c0.054-0.18,0.09-0.438,0.111-0.775
				c0.021-0.336,0.032-0.605,0.039-0.801c0.006-0.193,0.01-0.486,0.01-0.881v-6.088c0-0.393-0.004-0.686-0.01-0.879
				c-0.007-0.197-0.021-0.463-0.039-0.803c-0.021-0.338-0.062-0.596-0.111-0.774c-0.053-0.181-0.126-0.39-0.221-0.625
				c-0.1-0.237-0.218-0.418-0.357-0.541c-0.143-0.121-0.321-0.226-0.539-0.31c-0.217-0.084-0.468-0.127-0.753-0.127
				c-0.284,0-0.535,0.043-0.753,0.127c-0.216,0.084-0.396,0.188-0.539,0.31c-0.143,0.123-0.263,0.304-0.355,0.541
				c-0.096,0.235-0.169,0.444-0.223,0.625s-0.091,0.438-0.107,0.774c-0.021,0.34-0.035,0.604-0.041,0.803
				c-0.007,0.193-0.011,0.488-0.011,0.879v6.088c0,0.395,0.004,0.688,0.011,0.881c0.006,0.195,0.021,0.465,0.041,0.801
				c0.021,0.34,0.058,0.6,0.107,0.775c0.052,0.182,0.127,0.391,0.223,0.627c0.097,0.236,0.217,0.418,0.355,0.539
				C358.307,628.164,358.489,628.268,358.702,628.352z"/>
			<path d="M376.519,631.809c-0.823,0-1.557-0.195-2.188-0.59c-0.634-0.393-1.258-0.902-1.87-1.535v1.84h-4.06v-28.398h4.06v10.113
				c0.381-0.4,0.666-0.689,0.855-0.869c0.188-0.182,0.468-0.408,0.832-0.686c0.361-0.271,0.741-0.467,1.135-0.578
				c0.392-0.109,0.824-0.168,1.299-0.168c0.688,0,1.302,0.125,1.841,0.373s0.982,0.549,1.332,0.896
				c0.352,0.348,0.646,0.85,0.891,1.506c0.24,0.654,0.425,1.246,0.546,1.775c0.123,0.525,0.215,1.24,0.275,2.141
				c0.062,0.898,0.104,1.625,0.109,2.18c0.012,0.555,0.019,1.318,0.019,2.293v0.271c0,0.887-0.046,1.74-0.136,2.566
				c-0.091,0.824-0.255,1.664-0.491,2.521c-0.234,0.857-0.538,1.598-0.901,2.219c-0.364,0.623-0.853,1.135-1.458,1.529
				C377.993,631.609,377.298,631.809,376.519,631.809z M375.501,628.479c0.438,0,0.797-0.158,1.087-0.479
				c0.291-0.316,0.502-0.77,0.636-1.354s0.224-1.17,0.271-1.752s0.071-1.258,0.071-2.029c0-0.57-0.003-1.326-0.011-2.268
				c-0.006-0.939-0.009-1.648-0.009-2.125c0-0.479-0.012-0.893-0.028-1.244c-0.021-0.355-0.074-0.728-0.158-1.117
				c-0.085-0.393-0.198-0.715-0.342-0.969c-0.146-0.254-0.343-0.463-0.597-0.627s-0.561-0.246-0.92-0.246
				c-1.12,0-2.136,0.271-3.045,0.81v12.765C373.504,628.268,374.521,628.479,375.501,628.479z"/>
			<path d="M395.307,629.906c-0.939,1.27-2.5,1.902-4.679,1.902c-2.18,0-3.734-0.639-4.678-1.902
				c-0.941-1.271-1.411-3.098-1.411-5.488v-6.086c0-2.391,0.47-4.217,1.411-5.484c0.938-1.271,2.498-1.902,4.678-1.902
				c2.179,0,3.735,0.636,4.679,1.902c0.938,1.271,1.409,3.096,1.409,5.484v6.086C396.716,626.809,396.245,628.637,395.307,629.906z
				 M389.874,628.352c0.219,0.084,0.469,0.127,0.755,0.127c0.283,0,0.536-0.043,0.752-0.127c0.218-0.084,0.396-0.189,0.539-0.312
				c0.146-0.121,0.266-0.303,0.357-0.539c0.095-0.236,0.168-0.445,0.222-0.627c0.053-0.18,0.09-0.438,0.11-0.775
				c0.021-0.336,0.035-0.605,0.039-0.801c0.007-0.193,0.01-0.486,0.01-0.881v-6.088c0-0.393-0.003-0.686-0.01-0.879
				c-0.004-0.197-0.021-0.463-0.039-0.803c-0.021-0.338-0.062-0.596-0.11-0.774c-0.054-0.181-0.127-0.39-0.222-0.625
				c-0.097-0.237-0.216-0.418-0.357-0.541c-0.144-0.121-0.321-0.226-0.539-0.31c-0.216-0.084-0.469-0.127-0.752-0.127
				c-0.286,0-0.536,0.043-0.755,0.127c-0.216,0.084-0.396,0.188-0.538,0.31c-0.143,0.123-0.262,0.304-0.354,0.541
				c-0.098,0.235-0.169,0.444-0.225,0.625c-0.054,0.181-0.091,0.438-0.108,0.774c-0.021,0.34-0.033,0.604-0.039,0.803
				c-0.006,0.193-0.009,0.488-0.009,0.879v6.088c0,0.395,0.003,0.688,0.009,0.881c0.006,0.195,0.019,0.465,0.039,0.801
				c0.021,0.34,0.06,0.6,0.108,0.775c0.055,0.182,0.127,0.391,0.225,0.627c0.096,0.236,0.215,0.418,0.354,0.539
				C389.481,628.164,389.659,628.268,389.874,628.352z"/>
			<path d="M405.676,631.809c-1.598,0-2.758-0.406-3.479-1.225c-0.725-0.811-1.097-2.045-1.117-3.691V614.27h-2.029v-3.043h2.028
				v-7.104h4.061v7.104h3.047v3.043h-3.047v11.846c0,0.812,0.108,1.41,0.331,1.791c0.227,0.381,0.675,0.57,1.352,0.57
				c0.297,0,0.75-0.055,1.364-0.158v3.299C407.167,631.744,406.33,631.809,405.676,631.809z"/>
			<path d="M411.323,608.182v-4.06h4.06v4.06H411.323z M411.323,631.523v-20.297h4.06v20.297H411.323z"/>
			<path d="M424.338,631.809c-0.98,0-1.837-0.164-2.562-0.494c-0.728-0.326-1.303-0.754-1.734-1.283
				c-0.435-0.527-0.782-1.201-1.049-2.021c-0.264-0.814-0.444-1.639-0.547-2.459c-0.103-0.812-0.161-1.771-0.183-2.855
				c-0.031-0.877-0.031-1.762,0-2.65c0.021-1.078,0.08-2.029,0.183-2.854c0.103-0.826,0.286-1.646,0.556-2.469
				c0.271-0.816,0.619-1.486,1.048-2.014c0.431-0.521,1.003-0.947,1.729-1.273c0.726-0.328,1.578-0.49,2.562-0.49
				c2.138,0,3.667,0.574,4.601,1.727c0.931,1.152,1.427,2.861,1.491,5.121v0.539h-4.062v-0.57c-0.01-0.508-0.045-0.951-0.104-1.332
				c-0.062-0.381-0.153-0.762-0.284-1.141c-0.133-0.381-0.34-0.674-0.619-0.881c-0.281-0.207-0.621-0.312-1.021-0.312
				c-0.399,0-0.737,0.119-1.016,0.357c-0.274,0.234-0.48,0.576-0.626,1.021c-0.144,0.443-0.247,0.9-0.311,1.371
				c-0.064,0.471-0.104,1.014-0.11,1.625c-0.043,1.312-0.043,3.287,0,5.932c0.021,0.582,0.062,1.094,0.126,1.529
				c0.062,0.438,0.167,0.859,0.312,1.27c0.146,0.406,0.354,0.723,0.626,0.943c0.273,0.221,0.606,0.332,0.999,0.332
				c0.357,0,0.67-0.066,0.931-0.205c0.258-0.141,0.456-0.311,0.595-0.512c0.138-0.197,0.245-0.469,0.324-0.809
				c0.079-0.338,0.13-0.652,0.148-0.943c0.021-0.289,0.03-0.654,0.03-1.102v-0.492h4.062v0.525c-0.033,1.064-0.165,2.01-0.396,2.83
				c-0.23,0.816-0.584,1.531-1.055,2.145c-0.474,0.613-1.097,1.08-1.871,1.402C426.328,631.646,425.406,631.809,424.338,631.809z"/>
			<path d="M438.277,631.809c-1.67,0-3.011-0.498-4.021-1.492c-1.01-0.992-1.697-2.281-2.066-3.867l3.044-1.016
				c0.729,2.027,1.745,3.045,3.045,3.045c0.646,0,1.146-0.178,1.499-0.531s0.531-0.854,0.531-1.498c0-0.939-0.342-1.723-1.02-2.348
				l-4.06-3.045c-0.454-0.307-0.835-0.596-1.144-0.863c-0.308-0.27-0.619-0.6-0.937-0.99c-0.317-0.393-0.562-0.83-0.726-1.314
				c-0.163-0.486-0.243-1.018-0.243-1.586c0-1.732,0.553-3.062,1.655-3.98c1.104-0.92,2.582-1.379,4.435-1.379
				c0.876,0,1.67,0.141,2.378,0.42c0.709,0.279,1.303,0.676,1.782,1.182c0.479,0.508,0.879,1.068,1.188,1.688
				c0.312,0.617,0.559,1.311,0.736,2.068l-3.043,1.016c-0.148-0.4-0.299-0.748-0.443-1.039c-0.146-0.291-0.348-0.604-0.596-0.941
				c-0.249-0.338-0.541-0.602-0.882-0.785c-0.339-0.185-0.714-0.275-1.125-0.275c-0.646,0-1.146,0.178-1.497,0.529
				c-0.354,0.355-0.531,0.855-0.531,1.5c0,0.635,0.339,1.205,1.017,1.711l4.062,3.047c0.454,0.357,0.842,0.703,1.164,1.037
				c0.322,0.332,0.638,0.721,0.942,1.156c0.308,0.438,0.538,0.932,0.696,1.469c0.157,0.539,0.236,1.113,0.236,1.729
				c0,1.732-0.554,3.061-1.657,3.98C441.604,631.348,440.124,631.809,438.277,631.809z"/>
			<path d="M336.544,666.09v-28.412h4.062v28.412H336.544z"/>
			<path d="M344.776,666.09v-20.297h4.061v2.189c0.604-0.551,1.094-0.973,1.478-1.264c0.379-0.287,0.902-0.562,1.577-0.822
				c0.67-0.262,1.387-0.393,2.146-0.393c0.867,0,1.57,0.316,2.108,0.951c0.538,0.633,0.81,1.41,0.81,2.33v17.299h-4.06v-15.223
				c0-0.707-0.104-1.223-0.304-1.545s-0.605-0.484-1.222-0.484c-0.35,0-0.695,0.072-1.039,0.215c-0.344,0.146-0.6,0.275-0.771,0.396
				c-0.171,0.123-0.411,0.314-0.729,0.58v16.062h-4.056L344.776,666.09L344.776,666.09z"/>
			<path d="M365.829,666.375c-1.672,0-3.011-0.498-4.02-1.49c-1.013-0.992-1.699-2.281-2.069-3.867l3.044-1.018
				c0.729,2.031,1.744,3.045,3.045,3.045c0.646,0,1.146-0.178,1.498-0.527c0.354-0.355,0.531-0.855,0.531-1.5
				c0-0.939-0.339-1.727-1.018-2.35l-4.061-3.045c-0.454-0.305-0.835-0.594-1.141-0.861c-0.311-0.271-0.62-0.602-0.938-0.99
				c-0.316-0.395-0.558-0.83-0.722-1.316c-0.164-0.482-0.245-1.016-0.245-1.586c0-1.73,0.552-3.061,1.657-3.979
				c1.104-0.92,2.581-1.379,4.432-1.379c0.876,0,1.669,0.141,2.377,0.42c0.71,0.279,1.305,0.674,1.785,1.182
				c0.479,0.51,0.876,1.068,1.188,1.689c0.312,0.617,0.561,1.311,0.736,2.066l-3.043,1.018c-0.147-0.398-0.297-0.748-0.443-1.039
				c-0.146-0.287-0.349-0.605-0.597-0.939c-0.249-0.338-0.541-0.604-0.88-0.785c-0.339-0.186-0.714-0.275-1.125-0.275
				c-0.646,0-1.146,0.178-1.499,0.529c-0.353,0.354-0.531,0.855-0.531,1.498c0,0.633,0.339,1.205,1.019,1.713l4.061,3.043
				c0.453,0.361,0.843,0.707,1.164,1.039c0.322,0.334,0.638,0.721,0.943,1.158c0.306,0.439,0.538,0.928,0.694,1.467
				c0.158,0.539,0.237,1.115,0.237,1.73c0,1.73-0.553,3.061-1.656,3.979C369.155,665.916,367.678,666.375,365.829,666.375z"/>
			<path d="M380.023,666.375c-1.6,0-2.759-0.406-3.48-1.223c-0.724-0.812-1.097-2.045-1.116-3.693v-12.621h-2.027v-3.045h2.027
				v-7.102h4.062v7.102h3.045v3.045h-3.045v11.848c0,0.811,0.107,1.41,0.333,1.791c0.222,0.381,0.671,0.568,1.347,0.568
				c0.298,0,0.753-0.053,1.365-0.158v3.301C381.51,666.312,380.674,666.375,380.023,666.375z"/>
			<path d="M385.665,642.748v-4.057h4.062v4.057H385.665z M385.665,666.09v-20.297h4.062v20.297H385.665z"/>
			<path d="M399.24,666.375c-1.597,0-2.757-0.406-3.479-1.223c-0.727-0.812-1.1-2.045-1.118-3.693v-12.621h-2.027v-3.045h2.027
				v-7.102h4.062v7.102h3.044v3.045h-3.044v11.848c0,0.811,0.109,1.41,0.333,1.791c0.223,0.381,0.672,0.568,1.349,0.568
				c0.297,0,0.75-0.053,1.362-0.158v3.301C400.731,666.312,399.896,666.375,399.24,666.375z"/>
			<path d="M407.611,666.375c-0.888,0-1.604-0.312-2.144-0.941c-0.539-0.631-0.809-1.408-0.809-2.34v-17.301h4.061v16.062
				c0,0.424,0.132,0.768,0.391,1.025c0.26,0.271,0.595,0.396,1.007,0.396c0.224,0,0.438-0.023,0.65-0.076
				c0.211-0.055,0.42-0.146,0.626-0.277c0.205-0.131,0.363-0.232,0.48-0.312c0.115-0.078,0.281-0.215,0.5-0.404
				c0.217-0.189,0.354-0.305,0.403-0.35v-16.062h4.06v20.297h-4.06v-2.189c-0.401,0.352-0.696,0.604-0.88,0.764
				c-0.188,0.156-0.47,0.373-0.852,0.645c-0.382,0.27-0.717,0.469-1.008,0.59c-0.29,0.121-0.648,0.229-1.087,0.334
				C408.526,666.326,408.074,666.375,407.611,666.375z"/>
			<path d="M425.988,666.375c-1.597,0-2.756-0.406-3.479-1.223c-0.725-0.812-1.098-2.045-1.115-3.693v-12.621h-2.029v-3.045h2.028
				v-7.102h4.06v7.102h3.045v3.045h-3.045v11.848c0,0.811,0.11,1.41,0.333,1.791s0.672,0.568,1.349,0.568
				c0.298,0,0.751-0.053,1.363-0.158v3.301C427.48,666.312,426.644,666.375,425.988,666.375z"/>
			<path d="M437.086,666.375c-0.979,0-1.837-0.17-2.561-0.508c-0.728-0.338-1.302-0.779-1.729-1.324
				c-0.43-0.545-0.771-1.24-1.038-2.092c-0.265-0.852-0.444-1.703-0.547-2.553c-0.102-0.855-0.161-1.846-0.184-2.979
				c-0.031-0.889-0.031-1.771,0-2.664c0.032-1.057,0.104-1.99,0.214-2.811c0.111-0.818,0.306-1.613,0.579-2.385
				c0.271-0.773,0.631-1.406,1.07-1.904c0.438-0.496,1.015-0.896,1.729-1.195c0.713-0.303,1.547-0.453,2.498-0.453
				c0.865,0,1.63,0.115,2.291,0.342c0.659,0.229,1.209,0.57,1.648,1.029c0.438,0.461,0.803,0.971,1.093,1.531
				c0.291,0.561,0.51,1.24,0.659,2.037c0.146,0.797,0.251,1.582,0.31,2.354s0.087,1.658,0.087,2.664v0.477h-8.117v1.016
				c0,0.139,0,0.354,0,0.648c-0.021,0.393-0.021,0.795-0.009,1.215c0.017,0.416,0.034,0.826,0.056,1.229
				c0.021,0.4,0.08,0.785,0.178,1.148c0.095,0.365,0.211,0.686,0.349,0.959c0.138,0.275,0.33,0.492,0.579,0.648
				c0.248,0.16,0.542,0.238,0.881,0.238c0.421,0,0.771-0.08,1.045-0.246c0.275-0.162,0.479-0.408,0.611-0.734
				c0.132-0.33,0.224-0.656,0.273-0.982c0.056-0.328,0.084-0.738,0.098-1.236v-0.854h4.025v0.811
				c-0.096,2.168-0.629,3.807-1.603,4.916C440.601,665.822,439.107,666.375,437.086,666.375z M435.088,653.914h4.025v-1.221
				c-0.011-0.539-0.042-1.014-0.095-1.412c-0.056-0.402-0.146-0.803-0.277-1.205c-0.133-0.4-0.336-0.707-0.61-0.918
				c-0.271-0.213-0.609-0.318-1.014-0.318c-0.413,0-0.76,0.111-1.039,0.334c-0.28,0.223-0.485,0.541-0.618,0.959
				c-0.134,0.418-0.226,0.826-0.274,1.229c-0.056,0.402-0.084,0.885-0.098,1.443V653.914L435.088,653.914z"/>
			<path d="M334.577,700.658l6.088-28.412h4.062l6.088,28.412h-4.062l-1.521-7.104h-5.074l-1.521,7.104H334.577z M340.665,690.51
				h4.062l-2.03-12.18L340.665,690.51z"/>
			<path d="M355.824,700.943c-0.887,0-1.604-0.314-2.141-0.943c-0.539-0.629-0.812-1.406-0.812-2.338v-17.299h4.062v16.062
				c0,0.426,0.13,0.77,0.389,1.029c0.26,0.268,0.597,0.396,1.008,0.396c0.225,0,0.438-0.025,0.649-0.08
				c0.212-0.053,0.421-0.145,0.627-0.275s0.364-0.236,0.48-0.316c0.115-0.074,0.281-0.215,0.5-0.398
				c0.216-0.191,0.354-0.312,0.402-0.354v-16.062h4.061v20.295h-4.061v-2.188c-0.4,0.354-0.694,0.604-0.879,0.766
				c-0.188,0.158-0.468,0.373-0.852,0.643c-0.381,0.271-0.717,0.467-1.008,0.588c-0.291,0.119-0.649,0.23-1.087,0.334
				C356.74,700.893,356.288,700.943,355.824,700.943z"/>
			<path d="M373.901,700.943c-1.67,0-3.014-0.496-4.021-1.49c-1.01-0.994-1.697-2.283-2.066-3.869l3.043-1.014
				c0.729,2.029,1.746,3.043,3.045,3.043c0.646,0,1.146-0.176,1.499-0.529c0.354-0.352,0.53-0.854,0.53-1.5
				c0-0.938-0.34-1.723-1.019-2.346l-4.06-3.045c-0.454-0.307-0.834-0.594-1.144-0.863c-0.307-0.27-0.617-0.602-0.937-0.992
				c-0.315-0.391-0.56-0.828-0.724-1.311c-0.164-0.486-0.243-1.02-0.243-1.586c0-1.732,0.553-3.062,1.654-3.98
				c1.104-0.918,2.582-1.379,4.434-1.379c0.877,0,1.671,0.141,2.379,0.42c0.708,0.281,1.302,0.674,1.783,1.182
				c0.479,0.508,0.878,1.07,1.188,1.689c0.312,0.617,0.56,1.309,0.736,2.068l-3.041,1.014c-0.147-0.402-0.296-0.748-0.444-1.039
				c-0.146-0.291-0.346-0.604-0.595-0.943c-0.248-0.338-0.541-0.6-0.88-0.781c-0.339-0.188-0.714-0.277-1.126-0.277
				c-0.646,0-1.146,0.178-1.498,0.529c-0.354,0.354-0.531,0.854-0.531,1.498c0,0.635,0.34,1.205,1.017,1.713l4.062,3.045
				c0.454,0.359,0.844,0.705,1.164,1.039c0.322,0.332,0.639,0.721,0.942,1.156c0.309,0.438,0.539,0.928,0.697,1.467
				c0.157,0.539,0.236,1.113,0.236,1.73c0,1.732-0.553,3.061-1.656,3.979C377.229,700.484,375.749,700.943,373.901,700.943z"/>
			<path d="M388.09,700.943c-1.597,0-2.758-0.406-3.479-1.221c-0.727-0.814-1.1-2.047-1.117-3.695v-12.621h-2.029v-3.043h2.029
				v-7.104h4.06v7.104h3.045v3.043h-3.046v11.846c0,0.814,0.109,1.41,0.332,1.791c0.226,0.383,0.676,0.57,1.352,0.57
				c0.297,0,0.75-0.053,1.362-0.158v3.299C389.581,700.879,388.745,700.943,388.09,700.943z"/>
			<path d="M393.563,700.658v-20.295h4.06v2.711c0.412-0.803,1.013-1.504,1.802-2.104c0.786-0.598,1.661-0.896,2.623-0.896
				c0.031,0,0.249,0.021,0.649,0.062v4.486c-0.752-0.295-1.502-0.443-2.251-0.443c-0.847,0-1.526,0.258-2.046,0.764
				c-0.521,0.508-0.777,1.18-0.777,2.014v13.699h-4.06V700.658L393.563,700.658z"/>
			<path d="M404.726,677.318v-4.062h4.059v4.062H404.726z M404.726,700.658v-20.295h4.059v20.295H404.726L404.726,700.658z"/>
			<path d="M416.202,700.943c-1.132,0-2.091-0.488-2.878-1.467c-0.787-0.98-1.182-2.08-1.182-3.309c0-0.98,0.167-1.877,0.5-2.68
				s0.684-1.445,1.055-1.926c0.369-0.482,0.987-0.98,1.854-1.49c0.867-0.512,1.521-0.865,1.97-1.055
				c0.44-0.191,1.215-0.502,2.312-0.939c0.189-0.074,0.332-0.131,0.429-0.174v-1.459c0-1.025-0.144-1.82-0.429-2.387
				c-0.284-0.564-0.82-0.85-1.603-0.85c-0.697,0-1.196,0.24-1.498,0.723c-0.302,0.48-0.476,1.145-0.519,1.988
				c-0.011,0.115-0.017,0.291-0.017,0.523h-4.061c0.021-1.945,0.563-3.494,1.635-4.646c1.063-1.148,2.553-1.729,4.455-1.729
				c1.893,0,3.38,0.584,4.465,1.752c1.082,1.168,1.624,2.709,1.624,4.623v9.133c0,2.113,0.174,3.807,0.521,5.072h-4.043
				l-0.539-3.043c-0.211,0.422-0.384,0.75-0.517,0.979c-0.132,0.232-0.324,0.521-0.579,0.863c-0.254,0.346-0.508,0.607-0.762,0.795
				c-0.253,0.188-0.57,0.346-0.951,0.482C417.075,700.873,416.658,700.943,416.202,700.943z M418.234,697.613
				c0.286,0,0.562-0.084,0.834-0.254c0.27-0.168,0.472-0.332,0.606-0.49c0.14-0.158,0.309-0.371,0.51-0.635
				c0.029-0.053,0.059-0.09,0.077-0.109v-5.613c-0.169,0.115-0.446,0.299-0.841,0.539c-0.392,0.242-0.703,0.439-0.937,0.598
				c-0.233,0.152-0.516,0.361-0.84,0.635c-0.328,0.271-0.582,0.529-0.765,0.777c-0.181,0.246-0.339,0.553-0.477,0.908
				c-0.139,0.357-0.206,0.732-0.206,1.127C416.202,696.773,416.878,697.613,418.234,697.613z"/>
		</g>
	</g>
</g>
</svg>
